<svg xmlns="http://www.w3.org/2000/svg" viewBox="0 0 286.8 217.6" fill="#fff" xmlns:v="https://vecta.io/nano"><path d="M178.2 3.2H91.1v123.5c14.4-10.4 29.3-19 44.2-25.9V47.4h42.9v.1c34.5 0 62.5 28 62.5 62.5s-28 62.5-62.5 62.5h0-42.9v-38.6c0-1.1-1-1.1-1.5-.7-10.9 7.6-31.6 24.6-42.7 40v43.6h87.1c59 0 106.8-47.8 106.8-106.8C285 51.1 237.2 3.2 178.2 3.2zM5.8 69h42.4v147.7H5.8z"/><path d="M222.3 81c0-1.1-.4-2.4-1.3-3.2-.9-.9-2.3-1.5-5.2-1.2-65.2 6.3-158.5 44.1-210 140.2h42.4c45-79.2 111.1-115 170.7-131.8 2.7-.9 3.5-2.6 3.4-4zM27.1.6C41.1.6 52.5 12 52.5 26S41.1 51.4 27.1 51.4 1.7 40 1.7 26 13.1.6 27.1.6z"/></svg>